# xmcd CD database file
#
# Track frame offsets:
#	150
#	13500
#	30990
#	48906
#	61758
#	82884
#	96048
#	114196
#	123357
#	147926
#	163846
#	182690
#	197463
#	215555
#	237792
#	254680
#	280242
#
# Disc length: 3921 seconds
#
# Revision: 0
# Processed by: cddbd v1.5.2PL0 Copyright (c) Steve Scherf et al.
# Submitted via: CDex 1.51
#
DISCID=dc0f4f11
DTITLE=Nancy Nelson - Sweet and Low-down
DYEAR=2002
DGENRE=Jazz
TTITLE0=Shall We Dance
TTITLE1=Old Devil Moon
TTITLE2=Easy To Love
TTITLE3=Sweet and Lown-down
TTITLE4=Moon Song
TTITLE5=Let's Take A Walk Around The Block
TTITLE6=Moonglow
TTITLE7=I'll Take Romance
TTITLE8=Love Turned The Light Out
TTITLE9=Fools Fall In Love
TTITLE10=I Don't Know Enough About You
TTITLE11=Cow-Cow Boogie
TTITLE12=Reach For Tomorrow
TTITLE13=Night And Day
TTITLE14=Sand In My Shoes
TTITLE15=A Nightingale Sang In Berkeley Square
TTITLE16=Cheek To Cheek
EXTD=YEAR: 2002
EXTT0=
EXTT1=
EXTT2=
EXTT3=
EXTT4=
EXTT5=
EXTT6=
EXTT7=
EXTT8=
EXTT9=
EXTT10=
EXTT11=
EXTT12=
EXTT13=
EXTT14=
EXTT15=
EXTT16=
PLAYORDER=
